<svg width="1546" height="1113" viewBox="0 0 1546 1113" fill="none" xmlns="http://www.w3.org/2000/svg">
<path opacity="0.8" d="M1366.01 -18H1493.1M1366.01 -18V107.444M1366.01 -18H1238.92M1493.1 -18V107.444M1493.1 -18H1620.2V107.444M1493.1 107.444H1366.01M1493.1 107.444H1620.2M1493.1 107.444V232.889M1366.01 107.444V232.889M1366.01 107.444H1238.92M1620.2 107.444V232.889M1493.1 232.889H1366.01M1493.1 232.889V358.333M1493.1 232.889H1620.2M1366.01 232.889V358.333M1366.01 232.889H1238.92M1493.1 358.333H1366.01M1493.1 358.333V483.778M1493.1 358.333H1620.2M1366.01 358.333V483.778M1366.01 358.333H1238.92M1493.1 483.778H1366.01M1493.1 483.778V609.222M1493.1 483.778H1620.2M1366.01 483.778V609.222M1366.01 483.778H1238.92M1493.1 609.222H1366.01M1493.1 609.222V734.667M1493.1 609.222H1620.2M1366.01 609.222V734.667M1366.01 609.222H1238.92M1493.1 734.667H1366.01M1493.1 734.667V860.111M1493.1 734.667H1620.2M1366.01 734.667V860.111M1366.01 734.667H1238.92M1493.1 860.111H1366.01M1493.1 860.111V985.556M1493.1 860.111H1620.2M1366.01 860.111V985.556M1366.01 860.111H1238.92M1493.1 985.556H1366.01M1493.1 985.556V1111M1493.1 985.556H1620.2M1366.01 985.556V1111M1366.01 985.556H1238.92M1493.1 1111H1366.01M1493.1 1111H1620.2V985.556M1366.01 1111H1238.92M1620.2 232.889V358.333M1620.2 358.333V483.778M1620.2 483.778V609.222M1620.2 609.222V734.667M1620.2 734.667V860.111M1620.2 860.111V985.556M95.0919 -18H-32V107.444M95.0919 -18V107.444M95.0919 -18H222.184M95.0919 107.444H-32M95.0919 107.444H222.184M95.0919 107.444V232.889M-32 107.444V232.889M222.184 -18V107.444M222.184 -18H349.276M222.184 107.444H349.276M222.184 107.444V232.889M349.276 -18V107.444M349.276 -18H476.368M349.276 107.444H476.368M349.276 107.444V232.889M476.368 -18V107.444M476.368 -18H603.46M476.368 107.444H603.46M476.368 107.444V232.889M603.46 -18V107.444M603.46 -18H730.552M603.46 107.444H730.552M603.46 107.444V232.889M730.552 -18V107.444M730.552 -18H857.644M730.552 107.444H857.644M730.552 107.444V232.889M857.644 -18V107.444M857.644 -18H984.735M857.644 107.444H984.735M857.644 107.444V232.889M984.735 -18V107.444M984.735 -18H1111.83M984.735 107.444H1111.83M984.735 107.444V232.889M1111.83 -18V107.444M1111.83 -18H1238.92M1111.83 107.444H1238.92M1111.83 107.444V232.889M1238.92 -18V107.444M1238.92 107.444V232.889M95.0919 232.889H-32M95.0919 232.889V358.333M95.0919 232.889H222.184M-32 232.889V358.333M95.0919 358.333H-32M95.0919 358.333V483.778M95.0919 358.333H222.184M-32 358.333V483.778M95.0919 483.778H-32M95.0919 483.778V609.222M95.0919 483.778H222.184M-32 483.778V609.222M95.0919 609.222H-32M95.0919 609.222V734.667M95.0919 609.222H222.184M-32 609.222V734.667M95.0919 734.667H-32M95.0919 734.667V860.111M95.0919 734.667H222.184M-32 734.667V860.111M95.0919 860.111H-32M95.0919 860.111V985.556M95.0919 860.111H222.184M-32 860.111V985.556M95.0919 985.556H-32M95.0919 985.556V1111M95.0919 985.556H222.184M-32 985.556V1111H95.0919M95.0919 1111H222.184M222.184 232.889V358.333M222.184 232.889H349.276M222.184 358.333V483.778M222.184 358.333H349.276M222.184 483.778V609.222M222.184 483.778H349.276M222.184 609.222V734.667M222.184 609.222H349.276M222.184 734.667V860.111M222.184 734.667H349.276M222.184 860.111V985.556M222.184 860.111H349.276M222.184 985.556V1111M222.184 985.556H349.276M222.184 1111H349.276M349.276 232.889V358.333M349.276 232.889H476.368M349.276 358.333V483.778M349.276 358.333H476.368M349.276 483.778V609.222M349.276 483.778H476.368M349.276 609.222V734.667M349.276 609.222H476.368M349.276 734.667V860.111M349.276 734.667H476.368M349.276 860.111V985.556M349.276 860.111H476.368M349.276 985.556V1111M349.276 985.556H476.368M349.276 1111H476.368M476.368 232.889V358.333M476.368 232.889H603.46M476.368 358.333V483.778M476.368 358.333H603.46M476.368 483.778V609.222M476.368 483.778H603.46M476.368 609.222V734.667M476.368 609.222H603.46M476.368 734.667V860.111M476.368 734.667H603.46M476.368 860.111V985.556M476.368 860.111H603.46M476.368 985.556V1111M476.368 985.556H603.46M476.368 1111H603.46M603.46 232.889V358.333M603.46 232.889H730.552M603.46 358.333V483.778M603.46 358.333H730.552M603.46 483.778V609.222M603.46 483.778H730.552M603.46 609.222V734.667M603.46 609.222H730.552M603.46 734.667V860.111M603.46 734.667H730.552M603.46 860.111V985.556M603.46 860.111H730.552M603.46 985.556V1111M603.46 985.556H730.552M603.46 1111H730.552M730.552 232.889V358.333M730.552 232.889H857.644M730.552 358.333V483.778M730.552 358.333H857.644M730.552 483.778V609.222M730.552 483.778H857.644M730.552 609.222V734.667M730.552 609.222H857.644M730.552 734.667V860.111M730.552 734.667H857.644M730.552 860.111V985.556M730.552 860.111H857.644M730.552 985.556V1111M730.552 985.556H857.644M730.552 1111H857.644M857.644 232.889V358.333M857.644 232.889H984.735M857.644 358.333V483.778M857.644 358.333H984.735M857.644 483.778V609.222M857.644 483.778H984.735M857.644 609.222V734.667M857.644 609.222H984.735M857.644 734.667V860.111M857.644 734.667H984.735M857.644 860.111V985.556M857.644 860.111H984.735M857.644 985.556V1111M857.644 985.556H984.735M857.644 1111H984.735M984.735 232.889V358.333M984.735 232.889H1111.83M984.735 358.333V483.778M984.735 358.333H1111.83M984.735 483.778V609.222M984.735 483.778H1111.83M984.735 609.222V734.667M984.735 609.222H1111.83M984.735 734.667V860.111M984.735 734.667H1111.83M984.735 860.111V985.556M984.735 860.111H1111.83M984.735 985.556V1111M984.735 985.556H1111.83M984.735 1111H1111.83M1111.83 232.889V358.333M1111.83 232.889H1238.92M1111.83 358.333V483.778M1111.83 358.333H1238.92M1111.83 483.778V609.222M1111.83 483.778H1238.92M1111.83 609.222V734.667M1111.83 609.222H1238.92M1111.83 734.667V860.111M1111.83 734.667H1238.92M1111.83 860.111V985.556M1111.83 860.111H1238.92M1111.83 985.556V1111M1111.83 985.556H1238.92M1111.83 1111H1238.92M1238.92 232.889V358.333M1238.92 358.333V483.778M1238.92 483.778V609.222M1238.92 609.222V734.667M1238.92 734.667V860.111M1238.92 860.111V985.556M1238.92 985.556V1111" stroke="url(#paint0_radial_29_196)" stroke-opacity="0.2" stroke-width="3.3925"/>
<defs>
<radialGradient id="paint0_radial_29_196" cx="0" cy="0" r="1" gradientUnits="userSpaceOnUse" gradientTransform="translate(794.098 546.5) rotate(90) scale(564.5 826.098)">
<stop stop-color="#33894A"/>
<stop offset="1" stop-color="#68D585" stop-opacity="0.1"/>
</radialGradient>
</defs>
</svg>
