<svg width="27" height="27" viewBox="0 0 27 27" fill="none" xmlns="http://www.w3.org/2000/svg">
<path d="M22.3333 12.4432H24.5555C24.5555 6.74322 20.2522 2.44434 14.5444 2.44434V4.66656C19.0578 4.66656 22.3333 7.93656 22.3333 12.4432Z" fill="black"/>
<path d="M14.5555 9.11113C16.8922 9.11113 17.8888 10.1078 17.8888 12.4445H20.1111C20.1111 8.86113 18.1388 6.88891 14.5555 6.88891V9.11113ZM18.3577 15.1589C18.1442 14.9649 17.8637 14.8614 17.5753 14.8703C17.2869 14.8792 17.0133 14.9998 16.8122 15.2067L14.1533 17.9411C13.5133 17.8189 12.2266 17.4178 10.9022 16.0967C9.57774 14.7711 9.17663 13.4811 9.05774 12.8456L11.79 10.1856C11.9971 9.98461 12.1179 9.71093 12.1268 9.42247C12.1357 9.13401 12.0321 8.8534 11.8377 8.64002L7.73218 4.12558C7.53779 3.91153 7.2676 3.78169 6.97902 3.76364C6.69043 3.74559 6.40618 3.84075 6.18663 4.02891L3.77552 6.09669C3.58342 6.28948 3.46876 6.54608 3.45329 6.8178C3.43663 7.09558 3.11885 13.6756 8.22107 18.78C12.6722 23.23 18.2477 23.5556 19.7833 23.5556C20.0077 23.5556 20.1455 23.5489 20.1822 23.5467C20.4539 23.5315 20.7103 23.4163 20.9022 23.2234L22.9688 20.8111C23.1571 20.5917 23.2525 20.3075 23.2347 20.019C23.2168 19.7304 23.0872 19.4601 22.8733 19.2656L18.3577 15.1589Z" fill="black"/>
</svg>
