<svg width="27" height="28" viewBox="0 0 27 28" fill="none" xmlns="http://www.w3.org/2000/svg">
<path d="M13.4444 2.55542C11.0142 2.55829 8.68426 3.52498 6.9658 5.24344C5.24734 6.9619 4.28065 9.29182 4.27778 11.7221C4.27487 13.7081 4.9236 15.6402 6.12445 17.2221C6.12445 17.2221 6.37445 17.5513 6.41528 17.5988L13.4444 25.8888L20.4769 17.5946C20.5136 17.5504 20.7644 17.2221 20.7644 17.2221L20.7653 17.2196C21.9655 15.6384 22.614 13.7072 22.6111 11.7221C22.6082 9.29182 21.6416 6.9619 19.9231 5.24344C18.2046 3.52498 15.8747 2.55829 13.4444 2.55542ZM13.4444 15.0554C12.7852 15.0554 12.1407 14.8599 11.5925 14.4937C11.0444 14.1274 10.6171 13.6068 10.3648 12.9977C10.1126 12.3886 10.0465 11.7184 10.1752 11.0718C10.3038 10.4252 10.6212 9.83124 11.0874 9.36506C11.5536 8.89889 12.1475 8.58142 12.7941 8.4528C13.4407 8.32418 14.111 8.3902 14.7201 8.64249C15.3291 8.89478 15.8497 9.32202 16.216 9.87019C16.5823 10.4183 16.7778 11.0628 16.7778 11.7221C16.7767 12.6058 16.4251 13.453 15.8003 14.0779C15.1754 14.7028 14.3282 15.0543 13.4444 15.0554Z" fill="black"/>
</svg>
