<svg width="43" height="46" viewBox="0 0 43 46" fill="none" xmlns="http://www.w3.org/2000/svg">
<path d="M41.3923 30.0724H38.3649V31.809H39.4418V32.9874H36.9304V37.7405H39.7648V35.9757H38.8523V34.7635H41.3636V34.6733V30.1626L41.3923 30.0724Z" fill="black"/>
<path d="M16.5372 9.59378H4.18964V8.31953H30.2971V3.94414H7.05269V2.48381H17.8645V0.747192H4.81333V5.50033H28.0574V6.76896H1.92195V11.1443H16.5262L16.5372 9.59378Z" fill="black"/>
<path d="M2.699 15.2433V13.9859H34.6856V9.59363H18.0172V11.1442H32.4121V12.4297H0.431229V16.7826H1.68418H39.7934V18.0343H10.7437V22.4322H26.176V20.8929H13.0171V19.5961H42.0669V15.2433H2.699Z" fill="#1020E1"/>
<path d="M24.696 32.2146V33.7933H32.752V35.0789H17.7962V39.4881H28.5684V40.7229H21.6796V45.3576H27.3153V43.5984H23.9531V42.2509H30.836V37.8981H28.5684H20.0639V36.6126H35.0424V32.2146H24.696Z" fill="#ED1C24"/>
<path d="M27.6609 20.8988V22.4494H37.072V23.7067H17.4614V28.0595H18.2946H32.0376V29.3338H19.0375V33.7937H23.216V32.215H21.3051V30.9069H34.3052V26.5315H19.7349V25.2629H39.3397V20.8988H27.6609Z" fill="black"/>
</svg>
