<svg width="18" height="18" viewBox="0 0 18 18" fill="none" xmlns="http://www.w3.org/2000/svg">
<path fill-rule="evenodd" clip-rule="evenodd" d="M5.28937 0.054C6.24937 0.0105 6.55575 0 9 0C11.4443 0 11.7506 0.0105 12.7106 0.054C14.1739 0.12075 15.4583 0.47925 16.4895 1.5105C17.5211 2.54212 17.8792 3.82687 17.946 5.28937C17.9895 6.24937 18 6.55575 18 9C18 11.4443 17.9895 11.7506 17.946 12.7106C17.8792 14.1739 17.5208 15.4583 16.4895 16.4895C15.4579 17.5211 14.1727 17.8792 12.7106 17.946C11.7506 17.9895 11.4443 18 9 18C6.55575 18 6.24937 17.9895 5.28937 17.946C3.82612 17.8792 2.54175 17.5208 1.5105 16.4895C0.478875 15.4579 0.12075 14.1731 0.054 12.7106C0.0105 11.7506 0 11.4443 0 9C0 6.55575 0.0105 6.24937 0.054 5.28937C0.12075 3.82612 0.47925 2.54175 1.5105 1.5105C2.54212 0.478875 3.82687 0.12075 5.28937 0.054ZM12.6368 1.67399C11.6877 1.63049 11.403 1.62149 9.00004 1.62149C6.59704 1.62149 6.31241 1.63086 5.36329 1.67399C4.33916 1.72086 3.38854 1.92599 2.65729 2.65724C1.92604 3.38849 1.72091 4.33911 1.67404 5.36324C1.63054 6.31236 1.62154 6.59699 1.62154 8.99999C1.62154 11.403 1.63091 11.6876 1.67404 12.6367C1.72091 13.6609 1.92604 14.6115 2.65729 15.3427C3.38854 16.074 4.33916 16.2791 5.36329 16.326C6.31204 16.3695 6.59666 16.3785 9.00004 16.3785C11.4034 16.3785 11.688 16.3691 12.6368 16.326C13.6609 16.2791 14.6115 16.074 15.3428 15.3427C16.074 14.6115 16.2792 13.6609 16.326 12.6367C16.3695 11.6876 16.3785 11.403 16.3785 8.99999C16.3785 6.59699 16.3692 6.31236 16.326 5.36324C16.2792 4.33911 16.074 3.38849 15.3428 2.65724C14.6115 1.92599 13.6609 1.72086 12.6368 1.67399Z" fill="#161C2D"/>
<path fill-rule="evenodd" clip-rule="evenodd" d="M4.90912 9.40894C4.90912 6.92378 6.9236 4.90894 9.40912 4.90894C11.8946 4.90894 13.9091 6.92342 13.9091 9.40894C13.9091 11.8945 11.8946 13.9089 9.40912 13.9089C6.9236 13.9089 4.90912 11.8941 4.90912 9.40894ZM6.48798 9.40894C6.48798 11.0221 7.79592 12.3301 9.40911 12.3301C11.0223 12.3301 12.3302 11.0221 12.3302 9.40894C12.3302 7.79575 11.0223 6.48781 9.40911 6.48781C7.79592 6.48781 6.48798 7.79575 6.48798 9.40894Z" fill="#161C2D"/>
<circle cx="13.5" cy="4.49998" r="1.22727" fill="#161C2D"/>
</svg>
