<svg width="18" height="18" viewBox="0 0 18 18" fill="none" xmlns="http://www.w3.org/2000/svg">
<path fill-rule="evenodd" clip-rule="evenodd" d="M0.75 0H17.25C17.6625 0 18 0.3375 18 0.75V17.25C18 17.6625 17.6625 18 17.25 18H0.75C0.3375 18 0 17.6625 0 17.25V0.75C0 0.3375 0.3375 0 0.75 0ZM2.66247 15.3375H5.32497V6.75002H2.66247V15.3375ZM4.01247 5.58743C3.14997 5.58743 2.47497 4.91243 2.47497 4.04993C2.47497 3.18743 3.14997 2.51243 4.01247 2.51243C4.87497 2.51243 5.54997 3.18743 5.54997 4.04993C5.54997 4.87493 4.87497 5.58743 4.01247 5.58743ZM12.675 15.3375H15.3V10.6125C15.3 8.28755 14.8125 6.52505 12.1125 6.52505C10.8375 6.52505 9.93751 7.23755 9.60001 7.91255H9.56251V6.75005H7.01251V15.3375H9.67501V11.1C9.67501 9.97505 9.90001 8.88755 11.2875 8.88755C12.675 8.88755 12.675 10.1625 12.675 11.175V15.3375Z" fill="#161C2D"/>
</svg>
